<svg id="visual" viewBox="0 0 900 600" width="900" height="600" xmlns="http://www.w3.org/2000/svg" xmlns:xlink="http://www.w3.org/1999/xlink" version="1.1"><rect x="0" y="0" width="900" height="600" fill="#ffffff"></rect><path d="M0 107L11.5 107.8C23 108.7 46 110.3 69 112.2C92 114 115 116 138.2 118.3C161.3 120.7 184.7 123.3 207.8 122.2C231 121 254 116 277 118.5C300 121 323 131 346 133.2C369 135.3 392 129.7 415.2 127.3C438.3 125 461.7 126 484.8 124.2C508 122.3 531 117.7 554 114C577 110.3 600 107.7 623 111.7C646 115.7 669 126.3 692.2 127.2C715.3 128 738.7 119 761.8 116.7C785 114.3 808 118.7 831 122.3C854 126 877 129 888.5 130.5L900 132L900 601L888.5 601C877 601 854 601 831 601C808 601 785 601 761.8 601C738.7 601 715.3 601 692.2 601C669 601 646 601 623 601C600 601 577 601 554 601C531 601 508 601 484.8 601C461.7 601 438.3 601 415.2 601C392 601 369 601 346 601C323 601 300 601 277 601C254 601 231 601 207.8 601C184.7 601 161.3 601 138.2 601C115 601 92 601 69 601C46 601 23 601 11.5 601L0 601Z" fill="#62abfe"></path><path d="M0 171L11.5 167.2C23 163.3 46 155.7 69 156.5C92 157.3 115 166.7 138.2 171.8C161.3 177 184.7 178 207.8 176C231 174 254 169 277 168.7C300 168.3 323 172.7 346 173.5C369 174.3 392 171.7 415.2 169.8C438.3 168 461.7 167 484.8 164.5C508 162 531 158 554 156.3C577 154.7 600 155.3 623 158.2C646 161 669 166 692.2 167.8C715.3 169.7 738.7 168.3 761.8 164.2C785 160 808 153 831 154.3C854 155.7 877 165.3 888.5 170.2L900 175L900 601L888.5 601C877 601 854 601 831 601C808 601 785 601 761.8 601C738.7 601 715.3 601 692.2 601C669 601 646 601 623 601C600 601 577 601 554 601C531 601 508 601 484.8 601C461.7 601 438.3 601 415.2 601C392 601 369 601 346 601C323 601 300 601 277 601C254 601 231 601 207.8 601C184.7 601 161.3 601 138.2 601C115 601 92 601 69 601C46 601 23 601 11.5 601L0 601Z" fill="#5c9dee"></path><path d="M0 193L11.5 193.3C23 193.7 46 194.3 69 198C92 201.7 115 208.3 138.2 212.5C161.3 216.7 184.7 218.3 207.8 217.7C231 217 254 214 277 211.5C300 209 323 207 346 202.5C369 198 392 191 415.2 187.7C438.3 184.3 461.7 184.7 484.8 190.7C508 196.7 531 208.3 554 211.8C577 215.3 600 210.7 623 209C646 207.3 669 208.7 692.2 206.2C715.3 203.7 738.7 197.3 761.8 194.5C785 191.7 808 192.3 831 194.5C854 196.7 877 200.3 888.5 202.2L900 204L900 601L888.5 601C877 601 854 601 831 601C808 601 785 601 761.8 601C738.7 601 715.3 601 692.2 601C669 601 646 601 623 601C600 601 577 601 554 601C531 601 508 601 484.8 601C461.7 601 438.3 601 415.2 601C392 601 369 601 346 601C323 601 300 601 277 601C254 601 231 601 207.8 601C184.7 601 161.3 601 138.2 601C115 601 92 601 69 601C46 601 23 601 11.5 601L0 601Z" fill="#5690de"></path><path d="M0 242L11.5 239.8C23 237.7 46 233.3 69 233C92 232.7 115 236.3 138.2 236.3C161.3 236.3 184.7 232.7 207.8 232.7C231 232.7 254 236.3 277 236.3C300 236.3 323 232.7 346 232.7C369 232.7 392 236.3 415.2 238.7C438.3 241 461.7 242 484.8 243.3C508 244.7 531 246.3 554 249C577 251.7 600 255.3 623 255.2C646 255 669 251 692.2 250.3C715.3 249.7 738.7 252.3 761.8 253.3C785 254.3 808 253.7 831 252.7C854 251.7 877 250.3 888.5 249.7L900 249L900 601L888.5 601C877 601 854 601 831 601C808 601 785 601 761.8 601C738.7 601 715.3 601 692.2 601C669 601 646 601 623 601C600 601 577 601 554 601C531 601 508 601 484.8 601C461.7 601 438.3 601 415.2 601C392 601 369 601 346 601C323 601 300 601 277 601C254 601 231 601 207.8 601C184.7 601 161.3 601 138.2 601C115 601 92 601 69 601C46 601 23 601 11.5 601L0 601Z" fill="#5083ce"></path><path d="M0 277L11.5 280C23 283 46 289 69 290.7C92 292.3 115 289.7 138.2 285.2C161.3 280.7 184.7 274.3 207.8 273C231 271.7 254 275.3 277 277C300 278.7 323 278.3 346 277.7C369 277 392 276 415.2 276.3C438.3 276.7 461.7 278.3 484.8 279.2C508 280 531 280 554 278C577 276 600 272 623 270.3C646 268.7 669 269.3 692.2 268.8C715.3 268.3 738.7 266.7 761.8 269.5C785 272.3 808 279.7 831 283.2C854 286.7 877 286.3 888.5 286.2L900 286L900 601L888.5 601C877 601 854 601 831 601C808 601 785 601 761.8 601C738.7 601 715.3 601 692.2 601C669 601 646 601 623 601C600 601 577 601 554 601C531 601 508 601 484.8 601C461.7 601 438.3 601 415.2 601C392 601 369 601 346 601C323 601 300 601 277 601C254 601 231 601 207.8 601C184.7 601 161.3 601 138.2 601C115 601 92 601 69 601C46 601 23 601 11.5 601L0 601Z" fill="#4976be"></path><path d="M0 337L11.5 336.2C23 335.3 46 333.7 69 330.3C92 327 115 322 138.2 317.5C161.3 313 184.7 309 207.8 307.3C231 305.7 254 306.3 277 309.2C300 312 323 317 346 316.7C369 316.3 392 310.7 415.2 309.2C438.3 307.7 461.7 310.3 484.8 315.5C508 320.7 531 328.3 554 332.2C577 336 600 336 623 333.8C646 331.7 669 327.3 692.2 324.5C715.3 321.7 738.7 320.3 761.8 317.7C785 315 808 311 831 313C854 315 877 323 888.5 327L900 331L900 601L888.5 601C877 601 854 601 831 601C808 601 785 601 761.8 601C738.7 601 715.3 601 692.2 601C669 601 646 601 623 601C600 601 577 601 554 601C531 601 508 601 484.8 601C461.7 601 438.3 601 415.2 601C392 601 369 601 346 601C323 601 300 601 277 601C254 601 231 601 207.8 601C184.7 601 161.3 601 138.2 601C115 601 92 601 69 601C46 601 23 601 11.5 601L0 601Z" fill="#4269af"></path><path d="M0 366L11.5 365.8C23 365.7 46 365.3 69 364.5C92 363.7 115 362.3 138.2 362.5C161.3 362.7 184.7 364.3 207.8 362C231 359.7 254 353.3 277 353.5C300 353.7 323 360.3 346 364.7C369 369 392 371 415.2 370.5C438.3 370 461.7 367 484.8 365.7C508 364.3 531 364.7 554 362.8C577 361 600 357 623 355.5C646 354 669 355 692.2 354.3C715.3 353.7 738.7 351.3 761.8 351.7C785 352 808 355 831 357.3C854 359.7 877 361.3 888.5 362.2L900 363L900 601L888.5 601C877 601 854 601 831 601C808 601 785 601 761.8 601C738.7 601 715.3 601 692.2 601C669 601 646 601 623 601C600 601 577 601 554 601C531 601 508 601 484.8 601C461.7 601 438.3 601 415.2 601C392 601 369 601 346 601C323 601 300 601 277 601C254 601 231 601 207.8 601C184.7 601 161.3 601 138.2 601C115 601 92 601 69 601C46 601 23 601 11.5 601L0 601Z" fill="#3c5d9f"></path><path d="M0 405L11.5 405.7C23 406.3 46 407.7 69 407.5C92 407.3 115 405.7 138.2 402C161.3 398.3 184.7 392.7 207.8 394C231 395.3 254 403.7 277 407.8C300 412 323 412 346 408.2C369 404.3 392 396.7 415.2 394.3C438.3 392 461.7 395 484.8 397.8C508 400.7 531 403.3 554 402.7C577 402 600 398 623 395.7C646 393.3 669 392.7 692.2 394.8C715.3 397 738.7 402 761.8 403.2C785 404.3 808 401.7 831 402.3C854 403 877 407 888.5 409L900 411L900 601L888.5 601C877 601 854 601 831 601C808 601 785 601 761.8 601C738.7 601 715.3 601 692.2 601C669 601 646 601 623 601C600 601 577 601 554 601C531 601 508 601 484.8 601C461.7 601 438.3 601 415.2 601C392 601 369 601 346 601C323 601 300 601 277 601C254 601 231 601 207.8 601C184.7 601 161.3 601 138.2 601C115 601 92 601 69 601C46 601 23 601 11.5 601L0 601Z" fill="#355190"></path><path d="M0 436L11.5 437.5C23 439 46 442 69 443.5C92 445 115 445 138.2 443.8C161.3 442.7 184.7 440.3 207.8 437.5C231 434.7 254 431.3 277 430.8C300 430.3 323 432.7 346 434.5C369 436.3 392 437.7 415.2 436C438.3 434.3 461.7 429.7 484.8 429.5C508 429.3 531 433.7 554 436.2C577 438.7 600 439.3 623 441.7C646 444 669 448 692.2 449.7C715.3 451.3 738.7 450.7 761.8 448.5C785 446.3 808 442.7 831 443C854 443.3 877 447.7 888.5 449.8L900 452L900 601L888.5 601C877 601 854 601 831 601C808 601 785 601 761.8 601C738.7 601 715.3 601 692.2 601C669 601 646 601 623 601C600 601 577 601 554 601C531 601 508 601 484.8 601C461.7 601 438.3 601 415.2 601C392 601 369 601 346 601C323 601 300 601 277 601C254 601 231 601 207.8 601C184.7 601 161.3 601 138.2 601C115 601 92 601 69 601C46 601 23 601 11.5 601L0 601Z" fill="#2e4582"></path><path d="M0 489L11.5 488C23 487 46 485 69 482.5C92 480 115 477 138.2 477.3C161.3 477.7 184.7 481.3 207.8 484C231 486.7 254 488.3 277 486.2C300 484 323 478 346 476.2C369 474.3 392 476.7 415.2 478.7C438.3 480.7 461.7 482.3 484.8 480.2C508 478 531 472 554 470.8C577 469.7 600 473.3 623 475.3C646 477.3 669 477.7 692.2 477C715.3 476.3 738.7 474.7 761.8 475.8C785 477 808 481 831 483.7C854 486.3 877 487.7 888.5 488.3L900 489L900 601L888.5 601C877 601 854 601 831 601C808 601 785 601 761.8 601C738.7 601 715.3 601 692.2 601C669 601 646 601 623 601C600 601 577 601 554 601C531 601 508 601 484.8 601C461.7 601 438.3 601 415.2 601C392 601 369 601 346 601C323 601 300 601 277 601C254 601 231 601 207.8 601C184.7 601 161.3 601 138.2 601C115 601 92 601 69 601C46 601 23 601 11.5 601L0 601Z" fill="#273a73"></path><path d="M0 526L11.5 526.7C23 527.3 46 528.7 69 525.3C92 522 115 514 138.2 514.2C161.3 514.3 184.7 522.7 207.8 524.3C231 526 254 521 277 517.3C300 513.7 323 511.3 346 509.8C369 508.3 392 507.7 415.2 510C438.3 512.3 461.7 517.7 484.8 517.8C508 518 531 513 554 514C577 515 600 522 623 522.3C646 522.7 669 516.3 692.2 515.7C715.3 515 738.7 520 761.8 521.3C785 522.7 808 520.3 831 517.3C854 514.3 877 510.7 888.5 508.8L900 507L900 601L888.5 601C877 601 854 601 831 601C808 601 785 601 761.8 601C738.7 601 715.3 601 692.2 601C669 601 646 601 623 601C600 601 577 601 554 601C531 601 508 601 484.8 601C461.7 601 438.3 601 415.2 601C392 601 369 601 346 601C323 601 300 601 277 601C254 601 231 601 207.8 601C184.7 601 161.3 601 138.2 601C115 601 92 601 69 601C46 601 23 601 11.5 601L0 601Z" fill="#202f65"></path><path d="M0 557L11.5 558.7C23 560.3 46 563.7 69 562.5C92 561.3 115 555.7 138.2 554.2C161.3 552.7 184.7 555.3 207.8 556.8C231 558.3 254 558.7 277 559.8C300 561 323 563 346 561.5C369 560 392 555 415.2 552.8C438.3 550.7 461.7 551.3 484.8 551.5C508 551.7 531 551.3 554 551.8C577 552.3 600 553.7 623 554.8C646 556 669 557 692.2 557.8C715.3 558.7 738.7 559.3 761.8 557.8C785 556.3 808 552.7 831 553C854 553.3 877 557.7 888.5 559.8L900 562L900 601L888.5 601C877 601 854 601 831 601C808 601 785 601 761.8 601C738.7 601 715.3 601 692.2 601C669 601 646 601 623 601C600 601 577 601 554 601C531 601 508 601 484.8 601C461.7 601 438.3 601 415.2 601C392 601 369 601 346 601C323 601 300 601 277 601C254 601 231 601 207.8 601C184.7 601 161.3 601 138.2 601C115 601 92 601 69 601C46 601 23 601 11.5 601L0 601Z" fill="#182457"></path></svg>